<svg width="146" height="41" viewBox="0 0 146 41" fill="none" xmlns="http://www.w3.org/2000/svg">
<g clip-path="url(#clip0_13_97)">
<path d="M33.2057 38.1527C32.5433 38.1527 31.9095 37.9187 31.3162 37.459C30.8286 37.1242 30.4548 36.6524 30.2354 36.0958C30.146 35.8659 30.0119 35.4586 29.7681 34.3495L29.7559 34.293C29.1748 31.1674 28.8823 28.3443 28.8823 25.8962C28.8823 25.2832 28.8985 24.9081 28.9351 24.646C29.0976 23.4965 29.4918 22.6819 30.15 22.1455C30.7351 21.6696 31.4381 21.4195 32.1898 21.4195C32.8318 21.4195 33.4576 21.605 34.0508 21.968C34.7375 22.3713 35.1845 22.9924 35.3105 23.7143C35.347 23.9321 35.3917 24.283 35.3917 25.6986C35.3917 27.7958 35.6315 30.1914 36.1028 32.821C36.4076 34.41 36.4482 34.9585 36.4482 35.2852C36.4482 35.4102 36.436 35.5352 36.4116 35.6562V35.8135L36.2775 36.1442C36.0622 36.6725 35.6599 37.1162 35.0179 37.5396C34.384 37.951 33.7908 38.1527 33.2057 38.1527Z" fill="#AB3130"/>
<path d="M32.1857 23.2344C32.4905 23.2344 32.7953 23.3312 33.1 23.5207C33.3357 23.6538 33.4698 23.8232 33.5063 24.0208C33.5429 24.2225 33.5592 24.779 33.5592 25.6946C33.5592 27.9087 33.807 30.385 34.2987 33.1355C34.51 34.2406 34.6156 34.9585 34.6156 35.2811C34.6156 35.3214 34.6034 35.3577 34.5791 35.394V35.4505C34.51 35.6239 34.3149 35.8135 33.998 36.0232C33.6811 36.2329 33.4169 36.3378 33.2056 36.3378C32.9497 36.3378 32.6774 36.2248 32.397 35.995C32.1858 35.8619 32.0313 35.6764 31.9379 35.4384C31.8444 35.2005 31.7144 34.7084 31.5519 33.9663C30.9871 30.9335 30.7067 28.2434 30.7067 25.8962C30.7067 25.4001 30.7189 25.0654 30.7433 24.896C30.8367 24.2306 31.0236 23.7789 31.304 23.553C31.5641 23.3393 31.8566 23.2344 32.1857 23.2344ZM32.1857 19.6046C31.0074 19.6046 29.9021 19.9959 28.9879 20.742C27.9721 21.5687 27.3463 22.7988 27.1188 24.3919C27.07 24.7508 27.0497 25.1864 27.0497 25.8922C27.0497 28.4491 27.3544 31.3852 27.9558 34.6197L27.968 34.6762L27.9802 34.7326C28.2484 35.9587 28.4109 36.4426 28.5328 36.7532C28.8782 37.6364 29.4633 38.3785 30.2313 38.9189C31.3609 39.778 32.4661 39.9635 33.2056 39.9635C34.1524 39.9635 35.1032 39.6529 36.0297 39.0359C36.9724 38.4108 37.6062 37.6848 37.9638 36.8177L38.2361 36.1563V35.7852C38.2604 35.6159 38.2726 35.4465 38.2726 35.273C38.2726 34.8455 38.2279 34.2083 37.8947 32.4741C37.4437 29.9575 37.2162 27.6748 37.2162 25.6905C37.2162 24.2709 37.1796 23.7869 37.1105 23.3917C36.8952 22.1495 36.1434 21.0888 34.9935 20.4113C34.1199 19.8829 33.1528 19.6046 32.1857 19.6046Z" fill="#ECE0A6"/>
<path d="M48.2969 38.2091C47.3054 38.2091 46.4237 37.8905 45.7451 37.3017C45.0015 37.5437 44.2051 37.6687 43.3721 37.6687C42.8073 37.6687 42.2831 37.6163 41.8118 37.5195C41.3364 37.4307 41.1251 37.3985 41.0397 37.3864C40.4059 37.3783 39.9792 37.096 39.0162 36.4305L38.9715 36.3983C37.5209 35.3255 36.6513 33.7445 36.4563 31.8369C36.4238 31.5909 36.4075 31.3166 36.4075 30.998C36.4075 30.3205 36.6351 29.5461 37.1227 28.5621L37.143 28.5258C37.9882 26.9246 39.2519 25.7994 40.8975 25.1783C41.6655 24.9081 42.4741 24.775 43.3396 24.775C44.2742 24.775 45.1478 24.9162 45.9279 25.1985C46.0661 25.2469 46.1717 25.2832 46.253 25.3074C46.7081 25.1622 47.0941 25.0936 47.4558 25.0936C48.1262 25.0936 48.7845 25.3155 49.3533 25.7389L50.483 26.5818L50.617 30.6552C50.678 32.6435 50.7146 33.2364 50.7308 33.4138C50.7389 33.5025 50.7674 33.5832 50.8161 33.676C51.125 34.1559 51.4256 34.7326 51.4256 35.382C51.4256 35.7772 51.32 36.1765 51.1087 36.5717C50.5764 37.6001 49.5484 38.2091 48.2969 38.2091ZM43.4452 30.7722C43.3924 30.7722 43.2908 30.7722 43.0958 30.9537C42.9617 31.0787 42.9495 31.1472 42.9495 31.2481C42.9495 31.4215 42.9901 31.4901 43.0755 31.5747C43.1486 31.6433 43.238 31.7119 43.4615 31.724C43.4981 31.6998 43.5712 31.6352 43.6728 31.5062C43.7988 31.3449 43.8881 31.1876 43.945 31.0263C43.8313 30.9658 43.6809 30.8851 43.4899 30.7964L43.4452 30.7722Z" fill="#AB3130"/>
<path d="M43.3396 26.5818C44.0669 26.5818 44.7252 26.6867 45.3103 26.8964C45.802 27.0698 46.1311 27.1545 46.2937 27.1545C46.4115 27.1545 46.5415 27.1263 46.6797 27.0698C47.0088 26.9569 47.2648 26.8964 47.4558 26.8964C47.7361 26.8964 48.0084 26.9932 48.2644 27.1828L48.687 27.4973L48.7926 30.7036C48.8414 32.2684 48.882 33.2283 48.9145 33.5792C48.9511 33.9341 49.0608 34.2688 49.2477 34.5955C49.4834 34.9585 49.6012 35.2166 49.6012 35.3699C49.6012 35.4666 49.5647 35.5796 49.4956 35.7127C49.2599 36.1724 48.8617 36.3983 48.301 36.3983C47.5736 36.3983 47.021 36.1321 46.6472 35.5957C46.4603 35.3094 46.3424 35.1682 46.2937 35.1682C46.2002 35.1682 45.9401 35.265 45.5176 35.4545C44.8593 35.7207 44.1442 35.8538 43.3721 35.8538C42.9251 35.8538 42.5269 35.8175 42.1775 35.7409C41.568 35.628 41.2145 35.5675 41.121 35.5675H41.0845C41.0845 35.5675 41.0804 35.5675 41.0763 35.5675C41.0072 35.5675 40.67 35.3578 40.0646 34.9383C39.0081 34.1559 38.4108 33.0508 38.2686 31.6191C38.2442 31.4457 38.232 31.236 38.232 30.99C38.232 30.6068 38.4067 30.0664 38.7602 29.3606C39.3941 28.1588 40.3205 27.3279 41.5396 26.8722C42.084 26.6786 42.6813 26.5818 43.3396 26.5818ZM43.5143 33.5348C44.0995 33.5348 44.6358 33.2283 45.1153 32.6193C45.5948 32.0103 45.8386 31.3408 45.8386 30.6149C45.8386 30.3285 45.737 30.0906 45.5379 29.901C45.3388 29.7115 44.9243 29.4614 44.2904 29.159C44.0304 29.0259 43.75 28.9573 43.4453 28.9573C42.8601 28.9573 42.3238 29.1832 41.8443 29.6308C41.3648 30.0785 41.121 30.6189 41.121 31.2481C41.121 31.8974 41.3486 32.4419 41.8077 32.8774C42.2669 33.317 42.8317 33.5348 43.5143 33.5348ZM43.3396 22.9521C42.2669 22.9521 41.2511 23.1174 40.3165 23.4482L40.284 23.4603L40.2515 23.4724C38.2035 24.2427 36.5701 25.6946 35.5258 27.6748L35.5055 27.7111L35.4852 27.7474C34.8675 28.9896 34.579 30.018 34.579 30.9859C34.579 31.3731 34.5994 31.7159 34.64 32.0345C34.896 34.4543 36.0134 36.4628 37.8785 37.8461L37.9232 37.8784L37.9719 37.9107C38.9471 38.5882 39.7314 39.1287 40.8691 39.1891C40.9666 39.2053 41.1454 39.2375 41.4583 39.294C42.0475 39.419 42.6935 39.4795 43.3762 39.4795C44.0669 39.4795 44.7374 39.411 45.3875 39.2738C46.2368 39.7659 47.2242 40.024 48.301 40.024C50.227 40.024 51.8848 39.0359 52.7463 37.3743C53.0876 36.7209 53.2623 36.0474 53.2623 35.3618C53.2623 34.3979 52.9088 33.5993 52.5431 32.9702C52.5268 32.6596 52.4943 31.9902 52.4537 30.5907L52.348 27.3763L52.2912 25.6381L50.8893 24.5935L50.4667 24.279C49.5606 23.6135 48.5285 23.2667 47.4598 23.2667C47.0901 23.2667 46.7122 23.311 46.314 23.3998C45.3916 23.1013 44.392 22.9521 43.3396 22.9521Z" fill="#ECE0A6"/>
<path d="M59.3817 38.2978C58.4837 38.2978 57.6141 38.1607 56.7974 37.8905C56.3383 37.7453 55.7816 37.6364 55.1802 37.5719L55.1192 37.5638C54.0953 37.4227 53.3029 37.1928 52.7788 36.5636C52.2912 36.0071 51.9742 35.2609 51.7182 30.7722C51.6695 30.1954 51.6166 29.3646 51.5598 28.2354C51.5029 27.1424 51.4622 26.4447 51.4379 26.1462C51.3607 24.8758 51.3607 24.7871 51.3607 24.7226C51.3607 23.8595 51.6532 23.0932 52.2099 22.5084C52.6447 22.0567 53.4086 21.5365 54.6316 21.5365C55.0055 21.5365 55.3793 21.5889 55.745 21.6857L55.8141 21.7059L55.8791 21.7301C56.8015 22.0567 57.9026 22.948 57.9026 25.3275C57.9026 25.3477 57.9026 25.3679 57.9026 25.3921C58.6015 25.1339 59.3207 25.0009 60.0481 25.0009C61.649 25.0009 63.1647 25.6139 64.5584 26.8238C66.0984 28.1789 66.907 29.8849 66.907 31.7683C66.907 34.1559 65.7043 36.0393 63.4247 37.2129C62.0838 37.9268 60.7145 38.2978 59.3817 38.2978ZM60.0725 31.2158C59.9506 31.369 59.7758 31.6191 59.5442 32.0063C59.4711 32.1232 59.4101 32.2362 59.3492 32.337C59.4508 32.3047 59.6011 32.2483 59.8083 32.1555C60.1253 32.0143 60.2919 31.9135 60.3691 31.8611C60.3691 31.857 60.3691 31.853 60.3691 31.849C60.3691 31.7199 60.3691 31.5062 60.0725 31.2158Z" fill="#AB3130"/>
<path d="M54.6317 23.3473C54.843 23.3473 55.0542 23.3755 55.2655 23.432C55.806 23.6216 56.0741 24.2507 56.0741 25.3195C56.0741 26.0615 56.1107 26.7512 56.1798 27.3804L56.322 28.5257L57.094 27.8966C58.0571 27.1706 59.0404 26.8077 60.0481 26.8077C61.198 26.8077 62.2992 27.2674 63.3557 28.1829C64.5056 29.1952 65.0785 30.385 65.0785 31.7603C65.0785 33.4582 64.2455 34.7366 62.5796 35.5957C61.4784 36.1885 60.4097 36.483 59.3776 36.483C58.6747 36.483 58.0042 36.3781 57.3744 36.1684C56.7649 35.9788 56.0945 35.8457 55.3671 35.7691C54.6845 35.6723 54.2863 35.5513 54.1725 35.3981C53.9125 35.1117 53.7012 33.5308 53.5386 30.6471C53.4899 30.0946 53.437 29.2598 53.3801 28.1426C53.3233 27.0254 53.2786 26.3156 53.2583 26.0091C53.2095 25.2065 53.1892 24.779 53.1892 24.7226C53.1892 24.3233 53.307 23.9966 53.5427 23.7506C53.7987 23.4844 54.1603 23.3473 54.6317 23.3473ZM59.1013 34.1922H59.2436C59.5483 34.1922 59.9871 34.0631 60.5641 33.805C61.1371 33.5469 61.5312 33.3049 61.7425 33.075C62.0473 32.7524 62.2017 32.341 62.2017 31.8449C62.2017 30.9698 61.8035 30.2237 61.007 29.6147C60.6332 29.3082 60.3488 29.1549 60.1619 29.1549C59.9993 29.1549 59.7393 29.2396 59.3858 29.413C59.0119 29.5864 58.5406 30.139 57.9799 31.0706C57.4638 31.9296 57.1591 32.5588 57.0656 32.9581C57.0412 33.0347 57.029 33.1315 57.029 33.2444C57.029 33.4178 57.2972 33.5993 57.8376 33.7889C58.2074 33.926 58.63 34.0591 59.1013 34.1922ZM54.6317 19.7176C53.1729 19.7176 51.8483 20.258 50.9015 21.238L50.8893 21.2501L50.8771 21.2622C49.9994 22.1898 49.5322 23.3876 49.5322 24.7226C49.5322 24.8395 49.5322 24.9283 49.6094 26.2229V26.2511L49.6134 26.2793C49.6256 26.4407 49.6581 26.9246 49.7313 28.3281C49.7922 29.4614 49.845 30.3003 49.8938 30.8972C50.1417 35.2287 50.4383 36.6362 51.3729 37.7211C52.3237 38.8625 53.6687 39.1891 54.8633 39.3585L54.9242 39.3666L54.9852 39.3747C55.4565 39.423 55.8832 39.5077 56.257 39.6207C57.2485 39.9433 58.3009 40.1087 59.3817 40.1087C61.0152 40.1087 62.669 39.6691 64.2943 38.7979C67.1589 37.3097 68.7355 34.8092 68.7355 31.7562C68.7355 29.3404 67.7156 27.1666 65.7815 25.4647L65.7733 25.4566L65.7652 25.4485C64.0302 23.9442 62.1082 23.1779 60.0522 23.1779C59.849 23.1779 59.6458 23.186 59.4467 23.2021C58.8047 21.0767 57.2566 20.2822 56.4967 20.016L56.3626 19.9676L56.2286 19.9313C55.7044 19.7902 55.168 19.7176 54.6317 19.7176Z" fill="#ECE0A6"/>
<path d="M70.1455 34.7488C69.5319 34.7488 68.9306 34.5754 68.3658 34.2366C67.419 33.684 66.8745 32.7726 66.8745 31.7321C66.8745 30.7762 67.3581 29.9172 68.2032 29.3767L68.2723 29.3364C68.833 29.0097 69.4832 28.8121 70.1983 28.7516L70.2755 28.7436H70.3527C70.6534 28.7436 71.011 28.7153 71.4173 28.6548C72.0228 28.5419 72.7095 28.4854 73.5181 28.4854C75.0703 28.4854 76.9435 28.675 77.6789 30.1309C77.9065 30.5584 78.0203 31.0303 78.0203 31.5304C78.0203 32.458 77.553 33.2969 76.7444 33.8292C76.1349 34.2285 75.371 34.4302 74.4689 34.4302H74.0463C73.7334 34.4302 73.0874 34.4584 71.7708 34.5915C70.6981 34.7286 70.3527 34.7488 70.1455 34.7488Z" fill="#AB3130"/>
<path d="M73.5262 30.3003C75.0052 30.3003 75.8464 30.5181 76.0576 30.9577C76.1511 31.1311 76.1999 31.3207 76.1999 31.5304C76.1999 31.8571 76.0455 32.1152 75.7407 32.3168C75.436 32.5185 75.0134 32.6193 74.4729 32.6193H74.2982H74.0504C73.5343 32.6193 72.7135 32.6758 71.588 32.7927C70.8119 32.8895 70.3324 32.9339 70.1455 32.9339C69.8651 32.9339 69.5847 32.8492 69.3003 32.6758C68.9021 32.4459 68.703 32.1313 68.703 31.732C68.703 31.3892 68.8655 31.111 69.1947 30.9012C69.5238 30.7117 69.9098 30.5947 70.3568 30.5584C70.755 30.5584 71.2141 30.5221 71.7302 30.4455C72.2219 30.3487 72.8192 30.3003 73.5262 30.3003ZM73.5262 26.6706C72.6201 26.6706 71.8358 26.7351 71.1288 26.8642C70.7469 26.9166 70.5031 26.9287 70.3608 26.9287H70.2024L70.0439 26.9408C69.0565 27.0255 68.1504 27.3038 67.354 27.7676L67.2849 27.8079L67.2199 27.8522C65.8424 28.7355 65.05 30.1471 65.05 31.732C65.05 33.4058 65.9399 34.9182 67.4312 35.7933C68.2723 36.2975 69.2109 36.5636 70.1495 36.5636C70.4624 36.5636 70.8809 36.5354 72.0024 36.3983C73.2824 36.2692 73.835 36.2491 74.0544 36.2491H74.3023H74.477C75.7448 36.2491 76.85 35.9466 77.7602 35.3457C79.093 34.4705 79.8569 33.0791 79.8569 31.5304C79.8569 30.756 79.67 29.9898 79.3164 29.3082C77.9796 26.6706 74.7493 26.6706 73.5262 26.6706Z" fill="#ECE0A6"/>
<path d="M89.9909 38.2091C88.9994 38.2091 88.1177 37.8905 87.4391 37.3017C86.6955 37.5437 85.8991 37.6687 85.0661 37.6687C84.5013 37.6687 83.9772 37.6163 83.5058 37.5195C83.0304 37.4307 82.8191 37.3985 82.7338 37.3864C82.0999 37.3783 81.6732 37.096 80.7102 36.4305L80.6655 36.3983C79.2149 35.3255 78.3454 33.7445 78.1503 31.8369C78.1178 31.5909 78.1016 31.3166 78.1016 30.998C78.1016 30.3205 78.3291 29.5461 78.8167 28.5621L78.837 28.5258C79.6822 26.9246 80.9459 25.7994 82.5916 25.1783C83.3595 24.9081 84.1681 24.775 85.0336 24.775C85.9682 24.775 86.8418 24.9162 87.622 25.1985C87.7601 25.2469 87.8658 25.2832 87.947 25.3074C88.4021 25.1622 88.7882 25.0936 89.1498 25.0936C89.8202 25.0936 90.4785 25.3155 91.0474 25.7389L92.177 26.5818L92.3111 30.6552C92.372 32.6435 92.4086 33.2364 92.4248 33.4138C92.433 33.5025 92.4614 33.5832 92.5102 33.676C92.819 34.1559 93.1197 34.7326 93.1197 35.382C93.1197 35.7772 93.014 36.1765 92.8027 36.5717C92.2704 37.6001 91.2384 38.2091 89.9909 38.2091ZM85.1352 30.7722C85.0824 30.7722 84.9808 30.7722 84.7858 30.9537C84.6517 31.0787 84.6395 31.1472 84.6395 31.2481C84.6395 31.4215 84.6801 31.4901 84.7654 31.5747C84.8386 31.6433 84.928 31.7119 85.1515 31.724C85.188 31.6998 85.2612 31.6352 85.3628 31.5062C85.4887 31.3449 85.5781 31.1876 85.635 31.0263C85.5212 30.9658 85.3709 30.8851 85.1799 30.7964L85.1352 30.7722Z" fill="#AB3130"/>
<path d="M85.0295 26.5818C85.7569 26.5818 86.4152 26.6867 87.0003 26.8964C87.4919 27.0698 87.8211 27.1545 87.9836 27.1545C88.1014 27.1545 88.2315 27.1263 88.3696 27.0698C88.6987 26.9569 88.9547 26.8964 89.1457 26.8964C89.4261 26.8964 89.6983 26.9932 89.9543 27.1828L90.3769 27.4973L90.4826 30.7036C90.5313 32.2684 90.572 33.2283 90.6045 33.5792C90.641 33.9341 90.7507 34.2688 90.9377 34.5955C91.1733 34.9585 91.2912 35.2166 91.2912 35.3699C91.2912 35.4666 91.2546 35.5796 91.1855 35.7127C90.9498 36.1724 90.5516 36.3983 89.9909 36.3983C89.2636 36.3983 88.7109 36.1321 88.3371 35.5957C88.1502 35.3094 88.0324 35.1682 87.9836 35.1682C87.8901 35.1682 87.6301 35.265 87.2075 35.4545C86.5492 35.7207 85.8341 35.8538 85.0621 35.8538C84.6151 35.8538 84.2169 35.8175 83.8674 35.7409C83.2579 35.628 82.9044 35.5675 82.811 35.5675H82.7744C82.7744 35.5675 82.7703 35.5675 82.7663 35.5675C82.6972 35.5675 82.3599 35.3578 81.7545 34.9383C80.698 34.1559 80.1007 33.0508 79.9585 31.6191C79.9341 31.4457 79.9219 31.236 79.9219 30.99C79.9219 30.6068 80.0967 30.0664 80.4502 29.3606C81.084 28.1588 82.0105 27.3279 83.2295 26.8722C83.774 26.6786 84.3713 26.5818 85.0295 26.5818ZM85.2043 33.5348C85.7894 33.5348 86.3258 33.2283 86.8052 32.6193C87.2847 32.0103 87.5285 31.3408 87.5285 30.6149C87.5285 30.3285 87.4269 30.0906 87.2278 29.901C87.0287 29.7115 86.6143 29.4614 85.9804 29.159C85.7203 29.0259 85.44 28.9573 85.1352 28.9573C84.5501 28.9573 84.0137 29.1832 83.5342 29.6308C83.0548 30.0785 82.811 30.6189 82.811 31.2481C82.811 31.8974 83.0385 32.4419 83.4977 32.8774C83.9568 33.317 84.5257 33.5348 85.2043 33.5348ZM85.0295 22.9521C83.9568 22.9521 82.941 23.1174 82.0064 23.4482L81.9739 23.4603L81.9414 23.4724C79.8935 24.2427 78.26 25.6946 77.2157 27.6748L77.1954 27.7111L77.1751 27.7474C76.5575 28.9896 76.269 30.018 76.269 30.9859C76.269 31.3731 76.2893 31.7159 76.3299 32.0345C76.5859 34.4543 77.7033 36.4628 79.5684 37.8461L79.6131 37.8784L79.6619 37.9107C80.6371 38.5882 81.4213 39.1287 82.559 39.1891C82.6566 39.2053 82.8353 39.2375 83.1482 39.294C83.7374 39.419 84.3835 39.4795 85.0661 39.4795C85.7569 39.4795 86.4273 39.411 87.0775 39.2738C87.9267 39.7659 88.9141 40.024 89.9909 40.024C91.9169 40.024 93.5748 39.0359 94.4362 37.3743C94.7775 36.7209 94.9522 36.0474 94.9522 35.3618C94.9522 34.3979 94.5987 33.5993 94.233 32.9702C94.2168 32.6596 94.1843 31.9902 94.1436 30.5907L94.038 27.3763L93.9811 25.6381L92.5792 24.5935L92.1567 24.279C91.2505 23.6135 90.2184 23.2667 89.1498 23.2667C88.78 23.2667 88.4021 23.311 88.0039 23.3998C87.0815 23.1013 86.082 22.9521 85.0295 22.9521Z" fill="#ECE0A6"/>
<path d="M97.378 38.1527C96.7157 38.1527 96.0818 37.9187 95.4886 37.459C94.9969 37.1242 94.6271 36.6524 94.4077 36.0918C94.3183 35.8659 94.1842 35.4626 93.9404 34.3495L93.9282 34.289C93.3472 31.1593 93.0546 28.3362 93.0546 25.8922C93.0546 25.2832 93.0709 24.9081 93.1075 24.6419C93.27 23.4925 93.6641 22.6738 94.3224 22.1414C94.9035 21.6655 95.6105 21.4155 96.3581 21.4155C97.0001 21.4155 97.6259 21.601 98.2191 21.964C98.9058 22.3673 99.3528 22.9884 99.4788 23.7103C99.5153 23.9281 99.56 24.279 99.56 25.6946C99.56 27.7918 99.7998 30.1874 100.271 32.8169C100.576 34.406 100.617 34.9545 100.617 35.2811C100.617 35.4062 100.604 35.5312 100.58 35.6522V35.8095L100.446 36.1402C100.23 36.6685 99.8282 37.1121 99.1862 37.5356C98.5564 37.951 97.9672 38.1527 97.378 38.1527Z" fill="#AB3130"/>
<path d="M96.3581 23.2344C96.6629 23.2344 96.9676 23.3312 97.2724 23.5207C97.5081 23.6538 97.6422 23.8232 97.6787 24.0208C97.7153 24.2225 97.7316 24.779 97.7316 25.6946C97.7316 27.9087 97.9794 30.385 98.4711 33.1355C98.6824 34.2406 98.788 34.9585 98.788 35.2811C98.788 35.3214 98.7758 35.3577 98.7514 35.394V35.4505C98.6824 35.6239 98.4873 35.8135 98.1704 36.0232C97.8535 36.2329 97.5893 36.3378 97.378 36.3378C97.118 36.3378 96.8498 36.2248 96.5694 35.995C96.3581 35.8619 96.2037 35.6764 96.1103 35.4384C96.0168 35.2005 95.8868 34.7084 95.7243 33.9663C95.1635 30.9335 94.8791 28.2434 94.8791 25.8962C94.8791 25.4001 94.8913 25.0654 94.9157 24.896C95.0091 24.2306 95.196 23.7789 95.4805 23.553C95.7364 23.3393 96.029 23.2344 96.3581 23.2344ZM96.3581 19.6046C95.1798 19.6046 94.0745 19.9999 93.1603 20.742C92.1485 21.5647 91.5187 22.7948 91.2952 24.3959C91.2465 24.7549 91.2261 25.1904 91.2261 25.8962C91.2261 28.4491 91.5309 31.3852 92.1323 34.6237L92.1445 34.6842L92.1566 34.7447C92.372 35.7207 92.5386 36.3257 92.7133 36.7653C93.0546 37.6405 93.6398 38.3866 94.4118 38.927C95.5414 39.786 96.6466 39.9716 97.3862 39.9716C98.3329 39.9716 99.2837 39.661 100.21 39.044C101.153 38.4188 101.787 37.6929 102.144 36.8258L102.417 36.1644V35.7933C102.441 35.6239 102.453 35.4545 102.453 35.2811C102.453 34.8536 102.408 34.2164 102.075 32.4781C101.624 29.9615 101.397 27.6788 101.397 25.6946C101.397 24.2749 101.36 23.791 101.291 23.3957C101.076 22.1495 100.324 21.0928 99.174 20.4113C98.2923 19.8829 97.3252 19.6046 96.3581 19.6046Z" fill="#ECE0A6"/>
<path d="M109.024 39.1851C108.942 39.1851 108.808 39.1811 108.625 39.1649C108.593 39.1609 108.556 39.1569 108.528 39.1569L108.41 39.1528C107.512 39.0964 106.736 38.8584 106.098 38.4551C105.472 38.0599 104.936 37.4711 104.456 36.6604C103.77 35.5191 103.408 33.8332 103.327 31.365L103.319 30.8891C102.843 30.8205 102.254 30.6189 101.669 30.0986C100.832 29.3566 100.653 28.558 100.653 28.0135C100.653 26.7593 101.462 25.3074 103.701 25.1057C103.916 24.0249 104.497 23.4199 104.989 23.0932C105.598 22.6496 106.224 22.4237 106.846 22.4237C107.289 22.4237 107.736 22.5367 108.215 22.7665C108.792 23.0247 109.202 23.3191 109.495 23.6901C109.8 24.0773 109.979 24.5492 110.027 25.0976C110.417 25.1138 110.706 25.1501 110.946 25.2065C111.417 25.3195 111.856 25.5413 112.258 25.868C112.989 26.4649 113.388 27.2674 113.388 28.1305C113.388 29.0783 112.908 29.9333 112.075 30.4737C111.535 30.8326 110.828 31.0101 109.767 31.0504C109.8 32.4741 109.958 33.1557 110.056 33.4461C110.539 33.5993 110.99 33.8816 111.397 34.293C112.14 35.0391 112.295 35.7893 112.295 36.2853C112.295 37.3581 111.486 38.1083 111.222 38.3543L111.177 38.3946L111.132 38.4309C110.527 38.9229 109.796 39.1851 109.024 39.1851Z" fill="#AB3130"/>
<path d="M106.842 24.2346C107.004 24.2346 107.203 24.291 107.439 24.408C107.744 24.5411 107.951 24.6742 108.057 24.8073C108.162 24.9404 108.215 25.1501 108.215 25.4364C108.215 25.6461 108.203 25.8196 108.178 25.9527L108.073 26.8964H109.373C109.938 26.8964 110.316 26.9206 110.515 26.969C110.714 27.0174 110.909 27.1182 111.096 27.2715C111.401 27.5215 111.555 27.8038 111.555 28.1305C111.555 28.4733 111.393 28.7516 111.063 28.9613C110.783 29.1509 110.182 29.2477 109.267 29.2477H107.931V30.5342C107.931 33.4904 108.398 35.027 109.336 35.1399C109.592 35.1803 109.848 35.3214 110.092 35.5674C110.34 35.8175 110.462 36.0554 110.462 36.2813C110.462 36.4709 110.3 36.7209 109.97 37.0234C109.69 37.2533 109.373 37.3662 109.02 37.3662C108.971 37.3662 108.898 37.3622 108.792 37.3501C108.686 37.342 108.597 37.3339 108.528 37.3339C107.943 37.2976 107.459 37.1565 107.085 36.9185C106.712 36.6806 106.358 36.2853 106.029 35.7328C105.513 34.8738 105.22 33.3977 105.147 31.2964L105.111 29.2638L104.582 29.1791C104.302 29.1226 104.005 29.0944 103.701 29.0944C103.42 29.0944 103.144 28.9774 102.872 28.7355C102.604 28.4975 102.465 28.2555 102.465 28.0055C102.465 27.2634 103.05 26.8883 104.225 26.8883H104.367C104.814 26.8883 105.078 26.8359 105.159 26.731C105.241 26.6262 105.342 26.239 105.46 25.5735C105.529 25.0976 105.716 24.7629 106.025 24.5734C106.338 24.3515 106.61 24.2346 106.842 24.2346ZM106.842 20.6048C105.83 20.6048 104.851 20.9436 103.928 21.605C103.225 22.085 102.673 22.7383 102.307 23.5207C99.9258 24.2063 98.8206 26.1664 98.8206 28.0095C98.8206 29.3001 99.4016 30.5221 100.45 31.4497C100.787 31.7481 101.149 31.9982 101.531 32.1958C101.677 34.5713 102.112 36.2934 102.884 37.584C103.506 38.6285 104.253 39.4351 105.115 39.9796C106.009 40.5483 107.081 40.879 108.288 40.9596L108.406 40.9677H108.463C108.67 40.9879 108.849 40.9959 109.015 40.9959C110.214 40.9959 111.348 40.5926 112.282 39.8304L112.376 39.7538L112.461 39.6731C113.558 38.6568 114.115 37.5114 114.115 36.2773C114.115 35.4424 113.867 34.2002 112.697 33.0145C112.494 32.8088 112.286 32.6314 112.079 32.4781C112.441 32.3491 112.77 32.1837 113.075 31.9821C114.432 31.0988 115.208 29.6953 115.208 28.1265C115.208 26.7068 114.57 25.4042 113.416 24.4645C112.819 23.9805 112.169 23.6498 111.47 23.4643C111.328 23.1457 111.145 22.8472 110.929 22.5689C110.45 21.964 109.812 21.4921 108.979 21.117C108.268 20.7782 107.549 20.6048 106.842 20.6048Z" fill="#ECE0A6"/>
<path d="M125.878 38.5842C125.058 38.5842 124.294 38.314 123.664 37.8018C122.985 37.2492 122.607 36.4467 122.607 35.5392C122.607 35.0996 122.62 34.7246 122.648 34.3898L122.656 34.3212C122.66 34.2769 122.676 34.1035 122.676 33.68C122.676 33.071 122.603 32.0426 122.164 31.5304C122.152 31.5707 122.136 31.6151 122.12 31.6635C121.831 32.6072 121.673 33.6034 121.652 34.6318C121.652 35.4061 121.608 35.8377 121.482 36.1966C121.307 36.6927 120.966 37.1162 120.446 37.4953L120.397 37.5316L120.344 37.5638C119.743 37.9389 119.109 38.1284 118.455 38.1284C117.715 38.1284 117.02 37.8865 116.443 37.4227C115.801 36.9266 115.383 36.1402 115.09 34.8738C114.887 33.9905 114.655 32.4418 114.387 30.139C114.062 27.4651 113.879 26.5455 113.798 26.235C113.591 25.4889 113.493 24.9444 113.493 24.4927C113.493 23.9966 113.64 23.2465 114.343 22.5044C114.96 21.8632 115.757 21.5324 116.659 21.5324C117.471 21.5324 118.223 21.8107 118.833 22.3431C119.353 22.7827 119.71 23.4602 120.096 24.7468C120.182 25.0251 120.255 25.2912 120.316 25.5453C120.86 25.4243 121.445 25.3679 122.075 25.3679C123.038 25.3679 123.839 25.509 124.521 25.8034C126.622 26.6746 129.145 28.7556 129.145 33.68C129.145 35.4384 128.934 37.5517 127.288 38.2857L127.236 38.3059C126.784 38.4874 126.329 38.5842 125.878 38.5842Z" fill="#AB3130"/>
<path d="M116.659 23.3473C117.032 23.3473 117.362 23.4723 117.642 23.7183C117.853 23.8918 118.089 24.404 118.345 25.263C118.601 26.122 118.731 26.8198 118.731 27.3521C118.731 27.7716 118.812 27.9813 118.979 27.9813C119.097 27.9813 119.34 27.8764 119.718 27.6667C120.328 27.3441 121.112 27.1787 122.075 27.1787C122.778 27.1787 123.355 27.2755 123.798 27.4651C126.142 28.437 127.317 30.506 127.317 33.676C127.317 35.4102 127.057 36.3942 126.541 36.6241C126.305 36.7209 126.082 36.7653 125.874 36.7653C125.476 36.7653 125.123 36.6402 124.818 36.3942C124.558 36.1845 124.432 35.8982 124.432 35.5352C124.432 35.152 124.444 34.8213 124.468 34.535C124.493 34.3454 124.505 34.0591 124.505 33.676C124.505 31.8449 124.025 30.5866 123.062 29.901C122.64 29.6147 122.278 29.4735 121.973 29.4735C121.246 29.4735 120.714 30.026 120.373 31.1311C120.031 32.2362 119.848 33.3896 119.828 34.5915C119.828 35.1238 119.804 35.4586 119.759 35.5916C119.71 35.7247 119.584 35.8699 119.373 36.0192C119.068 36.2087 118.763 36.3055 118.459 36.3055C118.13 36.3055 117.837 36.2006 117.581 35.9909C117.301 35.7812 117.065 35.273 116.878 34.4584C116.691 33.6477 116.468 32.1353 116.212 29.9252C115.952 27.7877 115.74 26.4044 115.578 25.7752C115.411 25.1823 115.33 24.7548 115.33 24.4887C115.33 24.2426 115.448 23.9926 115.683 23.7466C115.931 23.4844 116.26 23.3473 116.659 23.3473ZM116.659 19.7176C115.265 19.7176 113.977 20.258 113.03 21.238L113.018 21.2501L113.006 21.2622C111.896 22.4358 111.661 23.6659 111.661 24.4927C111.661 25.1017 111.774 25.7873 112.026 26.7068C112.075 26.9125 112.246 27.7111 112.563 30.3608C112.839 32.7483 113.075 34.3132 113.298 35.2771C113.542 36.3337 114.017 37.8421 115.297 38.8423C116.199 39.5602 117.288 39.9393 118.442 39.9393C119.434 39.9393 120.421 39.6489 121.307 39.0964L121.413 39.0318L121.51 38.9592C121.652 38.8584 121.782 38.7536 121.908 38.6447C122.083 38.8463 122.282 39.0359 122.498 39.2093C123.453 39.9877 124.619 40.399 125.866 40.399C126.557 40.399 127.248 40.2579 127.926 39.9836L127.979 39.9635L128.032 39.9393C130.97 38.6366 130.97 35.0351 130.97 33.68C130.97 27.461 127.374 25.0291 125.22 24.1297C124.31 23.7425 123.278 23.557 122.071 23.557C121.921 23.557 121.774 23.5611 121.632 23.5651C121.295 22.5972 120.832 21.6615 120.027 20.9759C119.08 20.1531 117.918 19.7176 116.659 19.7176Z" fill="#ECE0A6"/>
<path d="M141.043 38.2091C140.051 38.2091 139.17 37.8905 138.491 37.3017C137.747 37.5437 136.951 37.6687 136.118 37.6687C135.553 37.6687 135.029 37.6163 134.558 37.5195C134.082 37.4307 133.871 37.3985 133.786 37.3864C133.152 37.3783 132.725 37.096 131.762 36.4305L131.717 36.3983C130.267 35.3255 129.397 33.7445 129.202 31.8369C129.17 31.5909 129.153 31.3166 129.153 30.998C129.153 30.3205 129.381 29.5461 129.869 28.5621L129.889 28.5258C130.734 26.9246 131.998 25.7994 133.643 25.1783C134.411 24.9081 135.22 24.775 136.085 24.775C137.02 24.775 137.894 24.9162 138.674 25.1985C138.812 25.2469 138.918 25.2832 138.999 25.3074C139.454 25.1622 139.84 25.0936 140.202 25.0936C140.872 25.0936 141.53 25.3155 142.099 25.7389L143.229 26.5818L143.363 30.6552C143.424 32.6435 143.46 33.2364 143.477 33.4138C143.485 33.5025 143.513 33.5832 143.562 33.676C143.871 34.1559 144.171 34.7326 144.171 35.382C144.171 35.7772 144.066 36.1765 143.855 36.5717C143.322 37.6001 142.29 38.2091 141.043 38.2091ZM136.187 30.7722C136.134 30.7722 136.033 30.7722 135.838 30.9537C135.703 31.0787 135.691 31.1472 135.691 31.2481C135.691 31.4215 135.732 31.4901 135.817 31.5747C135.89 31.6433 135.98 31.7119 136.203 31.724C136.24 31.6998 136.313 31.6352 136.415 31.5062C136.541 31.3449 136.63 31.1876 136.687 31.0263C136.573 30.9658 136.423 30.8851 136.232 30.7964L136.187 30.7722Z" fill="#AB3130"/>
<path d="M136.081 26.5818C136.809 26.5818 137.467 26.6867 138.052 26.8964C138.544 27.0698 138.873 27.1545 139.035 27.1545C139.153 27.1545 139.283 27.1263 139.421 27.0698C139.751 26.9569 140.007 26.8964 140.198 26.8964C140.478 26.8964 140.75 26.9932 141.006 27.1828L141.429 27.4973L141.534 30.7036C141.583 32.2684 141.624 33.2283 141.656 33.5792C141.693 33.9341 141.803 34.2688 141.989 34.5955C142.225 34.9585 142.343 35.2166 142.343 35.3699C142.343 35.4666 142.306 35.5796 142.237 35.7127C142.002 36.1724 141.603 36.3983 141.043 36.3983C140.315 36.3983 139.763 36.1321 139.389 35.5957C139.202 35.3094 139.084 35.1682 139.035 35.1682C138.942 35.1682 138.682 35.265 138.259 35.4545C137.601 35.7207 136.886 35.8538 136.114 35.8538C135.667 35.8538 135.269 35.8175 134.919 35.7409C134.31 35.628 133.956 35.5675 133.863 35.5675H133.826C133.826 35.5675 133.822 35.5675 133.818 35.5675C133.749 35.5675 133.412 35.3578 132.806 34.9383C131.75 34.1559 131.153 33.0508 131.01 31.6191C130.986 31.4457 130.974 31.236 130.974 30.99C130.974 30.6068 131.148 30.0664 131.502 29.3606C132.136 28.1588 133.062 27.3279 134.281 26.8722C134.826 26.6786 135.423 26.5818 136.081 26.5818ZM136.256 33.5348C136.841 33.5348 137.378 33.2283 137.857 32.6193C138.337 32.0103 138.58 31.3408 138.58 30.6149C138.58 30.3285 138.479 30.0906 138.28 29.901C138.081 29.7115 137.666 29.4614 137.032 29.159C136.772 29.0259 136.492 28.9573 136.187 28.9573C135.602 28.9573 135.066 29.1832 134.586 29.6308C134.107 30.0785 133.863 30.6189 133.863 31.2481C133.863 31.8974 134.09 32.4419 134.549 32.8774C135.009 33.317 135.573 33.5348 136.256 33.5348ZM136.081 22.9521C135.009 22.9521 133.993 23.1174 133.058 23.4482L133.026 23.4603L132.993 23.4724C130.945 24.2427 129.312 25.6946 128.268 27.6748L128.247 27.7111L128.227 27.7474C127.609 28.9896 127.321 30.018 127.321 30.9859C127.321 31.3731 127.341 31.7159 127.382 32.0345C127.638 34.4543 128.755 36.4628 130.62 37.8461L130.665 37.8784L130.714 37.9107C131.689 38.5882 132.473 39.1287 133.611 39.1891C133.708 39.2053 133.887 39.2375 134.2 39.294C134.789 39.419 135.435 39.4795 136.118 39.4795C136.809 39.4795 137.479 39.411 138.129 39.2738C138.979 39.7659 139.966 40.024 141.043 40.024C142.969 40.024 144.627 39.0359 145.488 37.3743C145.829 36.7209 146.004 36.0474 146.004 35.3618C146.004 34.3979 145.651 33.5993 145.285 32.9702C145.269 32.6596 145.236 31.9902 145.195 30.5907L145.09 27.3763L145.033 25.6381L143.631 24.5935L143.208 24.279C142.302 23.6135 141.27 23.2667 140.202 23.2667C139.832 23.2667 139.454 23.311 139.056 23.3998C138.133 23.1013 137.134 22.9521 136.081 22.9521Z" fill="#ECE0A6"/>
<path d="M27.1594 34.4906C26.879 34.4906 26.6108 34.4261 26.3589 34.2971L12.4785 27.2836C11.8975 26.9892 11.5358 26.4286 11.5155 25.7793C11.4952 25.134 11.8121 24.5492 12.3729 24.2144L22.4825 18.2011C23.3195 17.7051 23.994 16.9832 24.4369 16.1201L26.3345 12.4218C26.2614 12.329 26.2045 12.2242 26.1679 12.1112C26.0867 11.8612 26.107 11.595 26.2289 11.3611L26.2654 11.2925C26.4361 10.9618 26.7734 10.7561 27.1472 10.7561C27.3016 10.7561 27.456 10.7924 27.5942 10.865L30.8489 12.5105C31.3365 12.7565 31.5275 13.3494 31.2837 13.8334L31.2471 13.9059C31.0886 14.2125 30.7879 14.4101 30.4466 14.4383L28.4393 18.3544C27.9964 19.2175 27.8095 20.1854 27.8948 21.1493L28.9229 32.587C28.9676 33.0831 28.8091 33.559 28.4718 33.922C28.1305 34.2809 27.6551 34.4906 27.1594 34.4906Z" fill="#DCEEFF"/>
<path d="M27.1431 11.3651C27.2 11.3651 27.261 11.3772 27.3138 11.4055L30.5685 13.0509C30.7554 13.1437 30.8286 13.3736 30.7351 13.5591L30.6985 13.6317C30.6295 13.7608 30.4994 13.8374 30.3613 13.8374C30.3044 13.8374 30.2435 13.8253 30.1906 13.7971L30.1134 13.7567L27.8948 18.0802C27.3991 19.0441 27.1878 20.1249 27.2894 21.2017L27.6754 25.5131L28.3174 32.6395C28.3824 33.3453 27.8095 33.8938 27.1675 33.8938C26.9928 33.8938 26.814 33.8534 26.6433 33.7687L12.7548 26.7472C11.9422 26.3358 11.9056 25.2025 12.6857 24.7387L18.8702 21.0606L22.7994 18.7254C23.734 18.1689 24.4898 17.3623 24.9855 16.4024L27.1187 12.2443L26.94 12.1516C26.753 12.0588 26.6799 11.8289 26.7734 11.6434L26.8099 11.5708C26.8709 11.4377 27.005 11.3651 27.1431 11.3651ZM27.1431 10.1552C26.5377 10.1552 25.9932 10.4859 25.7169 11.0223L25.6803 11.0909C25.4853 11.47 25.4528 11.8975 25.5828 12.3008C25.599 12.3492 25.6153 12.3976 25.6356 12.442L23.8884 15.8458C23.4983 16.6081 22.901 17.2413 22.1615 17.6809L18.2322 20.016L12.0478 23.6942C11.3083 24.1338 10.8654 24.9404 10.8938 25.7954C10.9223 26.6544 11.422 27.4288 12.19 27.82L26.0704 34.8335C26.4117 35.0069 26.7734 35.0916 27.1472 35.0916C27.8136 35.0916 28.4515 34.8093 28.9025 34.3172C29.3576 33.8252 29.573 33.188 29.512 32.5185L28.8741 25.3921L28.5003 21.0928C28.4231 20.2419 28.5897 19.3869 28.9798 18.6246L30.857 14.9666C31.2552 14.8376 31.5925 14.5593 31.7875 14.1762L31.8241 14.1036C32.0191 13.7245 32.0516 13.297 31.9216 12.8937C31.7875 12.4903 31.5072 12.1637 31.1252 11.9701L27.8705 10.3246C27.6429 10.2157 27.3951 10.1552 27.1431 10.1552Z" fill="#ECE0A6"/>
<path d="M27.2285 13.4664L29.2276 14.4787C29.2439 14.4867 29.252 14.5069 29.2439 14.523L26.7896 19.3022C26.7205 19.4393 26.688 19.5885 26.6962 19.7418L27.265 31.4376C27.2975 32.1071 26.5865 32.5629 25.9851 32.2604L14.3152 26.3641C13.7016 26.0535 13.6691 25.1985 14.2501 24.8436L24.4126 18.6004C24.5507 18.5157 24.6604 18.3947 24.7336 18.2536L27.1797 13.4825C27.1919 13.4664 27.2122 13.4583 27.2285 13.4664Z" fill="#AB3130"/>
<path opacity="0.5" d="M24.7986 20.6371C24.9153 20.6371 25.0099 20.5432 25.0099 20.4274C25.0099 20.3116 24.9153 20.2177 24.7986 20.2177C24.6819 20.2177 24.5873 20.3116 24.5873 20.4274C24.5873 20.5432 24.6819 20.6371 24.7986 20.6371Z" fill="#DCEEFF"/>
<path opacity="0.5" d="M25.9282 20.2741C26.0448 20.2741 26.1394 20.1802 26.1394 20.0644C26.1394 19.9486 26.0448 19.8547 25.9282 19.8547C25.8115 19.8547 25.7169 19.9486 25.7169 20.0644C25.7169 20.1802 25.8115 20.2741 25.9282 20.2741Z" fill="#DCEEFF"/>
<path opacity="0.5" d="M24.7701 24.3677C24.8868 24.3677 24.9814 24.2738 24.9814 24.158C24.9814 24.0421 24.8868 23.9482 24.7701 23.9482C24.6534 23.9482 24.5588 24.0421 24.5588 24.158C24.5588 24.2738 24.6534 24.3677 24.7701 24.3677Z" fill="#DCEEFF"/>
<path opacity="0.5" d="M24.7701 26.3842C24.8868 26.3842 24.9814 26.2903 24.9814 26.1745C24.9814 26.0587 24.8868 25.9648 24.7701 25.9648C24.6534 25.9648 24.5588 26.0587 24.5588 26.1745C24.5588 26.2903 24.6534 26.3842 24.7701 26.3842Z" fill="#DCEEFF"/>
<path opacity="0.5" d="M23.4048 19.6611C23.443 19.6611 23.4739 19.6304 23.4739 19.5925C23.4739 19.5547 23.443 19.524 23.4048 19.524C23.3667 19.524 23.3358 19.5547 23.3358 19.5925C23.3358 19.6304 23.3667 19.6611 23.4048 19.6611Z" fill="#DCEEFF"/>
<path opacity="0.5" d="M23.5918 25.5897C23.9419 25.5897 24.2256 25.308 24.2256 24.9605C24.2256 24.6131 23.9419 24.3314 23.5918 24.3314C23.2417 24.3314 22.9579 24.6131 22.9579 24.9605C22.9579 25.308 23.2417 25.5897 23.5918 25.5897Z" fill="#DCEEFF"/>
<path opacity="0.5" d="M23.5471 24.767C23.6615 24.767 23.7543 24.6749 23.7543 24.5613C23.7543 24.4477 23.6615 24.3556 23.5471 24.3556C23.4326 24.3556 23.3398 24.4477 23.3398 24.5613C23.3398 24.6749 23.4326 24.767 23.5471 24.767Z" fill="#DCEEFF"/>
<path opacity="0.5" d="M22.1086 28.1708C22.2253 28.1708 22.3199 28.0769 22.3199 27.9611C22.3199 27.8453 22.2253 27.7514 22.1086 27.7514C21.9919 27.7514 21.8973 27.8453 21.8973 27.9611C21.8973 28.0769 21.9919 28.1708 22.1086 28.1708Z" fill="#DCEEFF"/>
<path opacity="0.5" d="M15.7333 26.356C15.85 26.356 15.9446 26.2621 15.9446 26.1463C15.9446 26.0304 15.85 25.9366 15.7333 25.9366C15.6166 25.9366 15.522 26.0304 15.522 26.1463C15.522 26.2621 15.6166 26.356 15.7333 26.356Z" fill="#DCEEFF"/>
<path opacity="0.5" d="M21.105 24.1539C21.2217 24.1539 21.3163 24.06 21.3163 23.9442C21.3163 23.8284 21.2217 23.7345 21.105 23.7345C20.9883 23.7345 20.8937 23.8284 20.8937 23.9442C20.8937 24.06 20.9883 24.1539 21.105 24.1539Z" fill="#DCEEFF"/>
<path d="M5.46517 11.9096C4.94506 11.9096 4.44121 11.8128 3.96986 11.6233C3.72606 11.5305 3.4335 11.4579 3.11249 11.4176L3.07186 11.4095C2.58426 11.3248 2.0479 11.1796 1.74315 10.736C1.51154 10.4133 1.349 9.92535 1.21491 6.99735C1.19053 6.63841 1.15803 6.06572 1.12552 5.29944C1.09301 4.55736 1.06863 4.08146 1.05644 3.8798C1.028 3.29501 1.01581 2.9885 1.01581 2.94413C1.01581 2.44807 1.15396 2.01653 1.42214 1.66969C1.76346 1.24219 2.26325 1.00827 2.83212 1.00827C3.05561 1.00827 3.28315 1.04457 3.50257 1.11716L3.54727 1.13329L3.5879 1.14943C4.29086 1.45191 4.64844 2.19399 4.64844 3.35147C4.64844 3.43617 4.64844 3.51683 4.64844 3.59749C5.03445 3.43213 5.4286 3.35147 5.83493 3.35147C6.76138 3.35147 7.62687 3.77091 8.41109 4.59769C9.22783 5.47689 9.64229 6.52145 9.64229 7.70717C9.64229 9.19536 9.00028 10.3891 7.78534 11.1514C7.02143 11.6515 6.2372 11.9096 5.46517 11.9096ZM5.40828 8.31616C5.45704 8.29599 5.53018 8.2597 5.6277 8.20727C5.88776 8.06611 5.96496 7.98545 5.96496 7.98142C5.98934 7.94915 6.00559 7.86849 6.00559 7.76363C6.00559 7.54988 5.95683 7.37243 5.85119 7.20707C5.78211 7.32 5.69678 7.47325 5.5952 7.68297C5.46923 7.93705 5.3839 8.13064 5.31889 8.27986C5.3514 8.29599 5.37984 8.30809 5.40828 8.31616Z" fill="#AB3130"/>
<path d="M2.83215 2.01653C2.94999 2.01653 3.06782 2.03669 3.1816 2.07299C3.48229 2.20205 3.62857 2.62955 3.62857 3.35147C3.62857 3.8556 3.64888 4.3194 3.68545 4.7469L3.76266 5.52125L4.19337 5.09374C4.72567 4.60171 5.27422 4.35973 5.8309 4.35973C6.46884 4.35973 7.07834 4.67027 7.66347 5.28733C8.30141 5.97295 8.61835 6.77956 8.61835 7.70716C8.61835 8.85658 8.15513 9.71965 7.23275 10.3004C6.62325 10.6997 6.03 10.9013 5.45707 10.9013C5.06699 10.9013 4.69723 10.8287 4.34371 10.6876C4.00646 10.5585 3.63669 10.4698 3.23036 10.4174C2.85247 10.3528 2.63305 10.2681 2.56803 10.1673C2.42582 9.97373 2.30798 8.90094 2.21859 6.95298C2.19421 6.57791 2.1617 6.01328 2.12919 5.2591C2.10481 4.50492 2.0845 4.02498 2.07231 3.81527C2.04386 3.27484 2.03167 2.98446 2.03167 2.94413C2.03167 2.67391 2.09669 2.4521 2.22671 2.28674C2.36893 2.10525 2.5721 2.01653 2.83215 2.01653ZM5.30673 9.35265H5.38393C5.55459 9.35265 5.79839 9.26392 6.11533 9.0905C6.43227 8.91708 6.65169 8.75172 6.76953 8.59846C6.94019 8.38068 7.02146 8.1024 7.02146 7.76766C7.02146 7.1748 6.80204 6.67067 6.35913 6.2593C6.1519 6.05361 5.99343 5.94875 5.89185 5.94875C5.80245 5.94875 5.65617 6.00521 5.46113 6.12217C5.2539 6.23913 4.99385 6.6142 4.68097 7.24336C4.39654 7.82412 4.22588 8.25162 4.17305 8.52184C4.16086 8.57427 4.15274 8.6388 4.15274 8.71542C4.15274 8.83238 4.30308 8.95337 4.5997 9.08243C4.81506 9.17116 5.04667 9.26392 5.30673 9.35265ZM2.83215 0C1.94228 0 1.16212 0.371041 0.629818 1.04053L0.621692 1.04859L0.617628 1.05666C0.215357 1.57692 0 2.23028 0 2.94413C0 3.00462 0 3.05302 0.0406334 3.91206V3.92416V3.93626C0.0528235 4.13791 0.0772035 4.60574 0.105647 5.33976C0.138154 6.10604 0.166597 6.67067 0.19504 7.06187C0.341321 10.1794 0.520108 10.7723 0.910189 11.3127C1.49937 12.1596 2.50708 12.329 2.8931 12.3976L2.93373 12.4057L2.97437 12.4097C3.21004 12.4379 3.42134 12.4904 3.60419 12.5589C4.18931 12.7928 4.81506 12.9098 5.45707 12.9098C6.42415 12.9098 7.39529 12.5993 8.33392 11.9862C9.82516 11.0425 10.646 9.518 10.646 7.69909C10.646 6.27139 10.1299 4.96065 9.15065 3.91206C7.91946 2.60535 6.66388 2.33514 5.82684 2.33514C5.74557 2.33514 5.65617 2.33917 5.56678 2.3432C5.31892 1.06876 4.60377 0.483966 3.98614 0.217785L3.90894 0.189553L3.82361 0.161322C3.49854 0.0524297 3.16534 0 2.83215 0Z" fill="#ECE0A6"/>
<path d="M16.7166 14.2327C15.9445 14.2327 15.4813 13.8858 15.2253 13.5954C14.8962 13.1881 14.7418 12.7969 14.7418 12.3936C14.7418 12.2242 14.7662 12.0548 14.819 11.8935C13.9779 11.6636 13.0555 11.0748 12.3444 9.7479C11.8406 8.83643 11.5805 7.78784 11.5805 6.64245C11.5805 5.50916 11.8609 4.73482 12.4338 4.27908C12.8401 3.92821 13.2424 3.85158 13.5147 3.85158C13.9494 3.85158 14.368 4.0492 14.758 4.43637C14.8962 4.57349 15.3107 4.98486 15.3107 5.57369C15.3107 5.64629 15.3066 5.70678 15.266 6.04556C15.2009 6.51742 15.1969 6.69891 15.1969 6.75537C15.1969 7.41276 15.3797 7.91286 15.7576 8.28793C15.8064 8.33633 15.847 8.37666 15.8836 8.40489C15.9486 8.38876 15.9811 8.37263 15.9933 8.36859C15.9933 8.36456 16.0583 8.296 16.168 8.12258C16.2452 7.98949 16.2696 7.90076 16.2737 7.87253C16.2777 7.84027 16.3102 7.61845 16.3265 6.68278C16.3631 5.70678 16.3915 5.41237 16.4159 5.25911C16.4687 4.88404 16.6109 4.56543 16.8344 4.31135L16.8791 4.26295C17.2286 3.91611 17.6593 3.73462 18.1225 3.73462C18.476 3.73462 19.3496 3.85561 19.8006 4.99696C19.9998 5.50916 20.1542 6.32384 20.2842 7.56602C20.3655 8.2597 20.4061 8.90499 20.4061 9.46962C20.4061 10.4093 20.2598 11.2522 19.9754 11.9741C19.9429 12.4783 19.5772 12.8291 19.2318 13.1236C18.927 13.3817 18.606 13.6075 18.2769 13.793C17.7365 14.0875 17.2164 14.2327 16.7166 14.2327Z" fill="#AB3130"/>
<path d="M18.1225 4.7469C18.4476 4.7469 18.6914 4.95259 18.8539 5.36799C19.0164 5.77936 19.1546 6.54968 19.2724 7.67087C19.3496 8.34035 19.3903 8.94128 19.3903 9.46961C19.3903 10.3206 19.2602 11.0586 19.0002 11.6757C18.9758 11.7281 18.9596 11.8047 18.9596 11.9096C18.9596 11.9862 18.8295 12.1355 18.5695 12.3532C18.3094 12.571 18.0412 12.7606 17.769 12.9138C17.3911 13.1195 17.0417 13.2244 16.7166 13.2244C16.4037 13.2244 16.164 13.1276 15.9933 12.934C15.8389 12.7404 15.7576 12.5589 15.7576 12.3936C15.7576 12.2242 15.8227 12.0709 15.9527 11.9298C16.0827 11.7604 16.2574 11.6797 16.4809 11.6797C16.7003 11.6797 16.9482 11.5829 17.2204 11.3893C17.4927 11.1958 17.6755 10.9941 17.7649 10.7884C17.8299 10.619 17.8625 10.5182 17.8625 10.4779C17.8625 10.4375 17.8421 10.4214 17.8056 10.4214C17.7162 10.4214 17.5252 10.498 17.2408 10.6553C16.7613 10.9013 16.2859 11.0223 15.8186 11.0223C14.7256 11.0223 13.8682 10.4416 13.2424 9.28005C12.8117 8.50571 12.6004 7.6265 12.6004 6.64647C12.6004 5.83179 12.763 5.30346 13.088 5.05745C13.2302 4.92839 13.3725 4.86386 13.5187 4.86386C13.6731 4.86386 13.8519 4.96065 14.047 5.15424C14.2176 5.32363 14.2989 5.46479 14.2989 5.58174C14.2989 5.60594 14.2867 5.7229 14.2583 5.92859C14.2054 6.31576 14.1811 6.59404 14.1811 6.7594C14.1811 7.687 14.4655 8.43714 15.0384 9.00581C15.3391 9.30425 15.5585 9.44944 15.7008 9.44944C15.7901 9.44944 15.8714 9.44137 15.9364 9.42928C16.2087 9.37685 16.4159 9.30425 16.5622 9.20746C16.7044 9.11066 16.8629 8.92514 17.0295 8.65493C17.1595 8.43714 17.2408 8.23146 17.2733 8.04594C17.3058 7.86042 17.3302 7.40872 17.3423 6.6989C17.3667 6.01328 17.3952 5.58174 17.4195 5.40026C17.4439 5.21877 17.5049 5.07761 17.5943 4.97275C17.7527 4.82353 17.9275 4.7469 18.1225 4.7469ZM18.1225 2.73038C17.3911 2.73038 16.6922 3.02076 16.1599 3.55312L16.1112 3.60152L16.0665 3.64991C15.9567 3.77494 15.8592 3.91206 15.7739 4.05322C15.6886 3.94433 15.591 3.83543 15.4813 3.72654C14.7459 2.99656 14.0063 2.8433 13.5187 2.8433C13.0758 2.8433 12.4257 2.96026 11.7878 3.50472C10.9791 4.15404 10.5728 5.2107 10.5728 6.64244C10.5728 7.95721 10.8735 9.16713 11.4627 10.2359C12.0397 11.3046 12.8158 12.0871 13.7382 12.5509C13.7666 12.9824 13.9169 13.5793 14.4127 14.1963L14.4371 14.2286L14.4614 14.2568C15.0181 14.8941 15.8186 15.2449 16.7207 15.2449C17.3911 15.2449 18.0778 15.0554 18.7564 14.6843L18.7686 14.6763L18.7808 14.6682C19.1627 14.4504 19.5325 14.1923 19.8901 13.8939C20.2151 13.6196 20.8531 13.0832 20.975 12.2121C21.2757 11.4055 21.426 10.4859 21.426 9.47364C21.426 8.87271 21.3813 8.19516 21.296 7.45308C21.1538 6.10604 20.9872 5.23893 20.7515 4.63398C20.2761 3.44019 19.2968 2.73038 18.1225 2.73038Z" fill="#ECE0A6"/>
</g>
<defs>
<clipPath id="clip0_13_97">
<rect width="146" height="41" fill="white"/>
</clipPath>
</defs>
</svg>
